<?xml version="1.0" encoding="utf-8"?>
<!-- Svg Vector Icons : http://www.onlinewebfonts.com/icon -->
<!DOCTYPE svg PUBLIC "-//W3C//DTD SVG 1.1//EN" "http://www.w3.org/Graphics/SVG/1.1/DTD/svg11.dtd">
<svg version="1.1" xmlns="http://www.w3.org/2000/svg" xmlns:xlink="http://www.w3.org/1999/xlink" x="0px" y="0px" viewBox="0 0 1000 1000" enable-background="new 0 0 1000 1000" xml:space="preserve">
<metadata> Svg Vector Icons : http://www.onlinewebfonts.com/icon </metadata>
<g><path d="M599.4,337.1h23.3c20.1,0,29.9-8.9,29.9-26.1c0-20.1-18.7-30.4-55.1-30.4h-38.7l-57.9-79.3h27.6c18.2,0,27.5-8.9,27.5-26.6c0-20.1-13.1-29.9-38.7-29.9h-56C396.4,54.8,355.8,10,338.6,10c-7.9,0-16.3,3.3-25.7,9.8c-8.9,6.6-13.6,14-13.6,21.5c0,7.5,9.8,26.6,29.4,57.9c19.1,31.3,47.6,89.6,84.9,175c37.3,85.4,56,137.2,56,154.9c0,11.7-16.8,13.1-49.9,14c-109.2,0.5-187.6,10.7-235.2,21c-5.6-5.1-19.1-23.3-40.6-54.6c-21.9-31.2-36.9-49.5-44.8-55.5c-8.4-6.1-22.9-8.9-43.4-8.9c-11.2,0-18.6,1.9-22.4,4.7c0,14,16.4,64.4,49.4,150.7c-33.1,78.4-49.4,128.3-49.4,150.3c3.8,3.2,11.2,4.7,22.4,4.7c20.6,0,35-2.8,42.9-8.4c7.9-5.6,22.9-24.2,44.8-55.5c21.9-31.7,35.4-49.9,41-54.6c47.6,8.9,112.9,16.8,175.4,20.1c64.9,4.2,87.7,0.5,96.1,3.3c8.9,3.2,13.6,4.7,13.6,11.2c0,17.7-18.7,69.1-56,154.5c-37.3,85.9-65.8,144.2-84.9,175.5c-19.6,31.2-29.4,50.8-29.4,58.3c0,7.4,4.7,14.5,13.6,20.5c9.3,6.6,17.7,9.8,25.7,9.8c17.2,0,57.9-44.8,122.7-134.5h56c25.7,0,38.7-9.7,38.7-29.8c0-17.7-9.3-26.1-27.5-26.1h-27.6l57.9-79.8h38.7c36.4,0,55.1-10.2,55.1-29.9c0-17.8-9.8-26.6-29.9-26.6h-23.3l92.5-105h120.8c102.7,0,154-25.2,154-60.6c0-20.1-65.3-55.1-154-55.1H691.8L599.4,337.1z"/></g>
</svg>